<?xml version="1.0" encoding="iso-8859-1"?>
<!-- Generator: Adobe Illustrator 18.1.1, SVG Export Plug-In . SVG Version: 6.00 Build 0)  -->
<svg version="1.1" id="Layer_1" xmlns="http://www.w3.org/2000/svg" xmlns:xlink="http://www.w3.org/1999/xlink" x="0px" y="0px"
	 viewBox="0 0 37 20" style="enable-background:new 0 0 37 20;" xml:space="preserve">
<path d="M27,0h-5.638l-2.268,3.528l3.566,5.548L24.638,6H27c2.206,0,4,1.794,4,4c0,2.206-1.794,4-4,4h-2.362l-9-14H10
	C4.486,0,0,4.486,0,10c0,5.514,4.486,10,10,10h5.638l2.268-3.528l-3.566-5.548L12.362,14H10c-2.206,0-4-1.794-4-4
	c0-2.206,1.794-4,4-4h2.362l9,14H27c5.514,0,10-4.486,10-10C37,4.486,32.514,0,27,0z"/>
<g>
</g>
<g>
</g>
<g>
</g>
<g>
</g>
<g>
</g>
<g>
</g>
<g>
</g>
<g>
</g>
<g>
</g>
<g>
</g>
<g>
</g>
<g>
</g>
<g>
</g>
<g>
</g>
<g>
</g>
</svg>
