<?xml version="1.0" encoding="utf-8"?>
<!-- Generator: Adobe Illustrator 16.0.0, SVG Export Plug-In . SVG Version: 6.00 Build 0)  -->
<!DOCTYPE svg PUBLIC "-//W3C//DTD SVG 1.1//EN" "http://www.w3.org/Graphics/SVG/1.1/DTD/svg11.dtd">
<svg version="1.1" id="Layer_1" xmlns="http://www.w3.org/2000/svg" xmlns:xlink="http://www.w3.org/1999/xlink" x="0px" y="0px"
	 width="34px" height="30px" viewBox="-622.5 420.5 34 30" enable-background="new -622.5 420.5 34 30" xml:space="preserve">
<g>
	<polygon fill="#FFFFFF" points="-611.5,420.5 -622.5,420.5 -622.5,431.5 -620.5,431.5 -620.5,422.5 -611.5,422.5 	"/>
	<polygon fill="#FFFFFF" points="-599.5,420.5 -599.5,422.5 -590.5,422.5 -590.5,431.5 -588.5,431.5 -588.5,420.5 	"/>
</g>
<g>
	<polygon fill="#FFFFFF" points="-611.5,448.5 -620.5,448.5 -620.5,439.5 -622.5,439.5 -622.5,450.5 -611.5,450.5 	"/>
	<polygon fill="#FFFFFF" points="-590.5,439.5 -590.5,448.5 -599.5,448.5 -599.5,450.5 -588.5,450.5 -588.5,439.5 	"/>
</g>
<path fill="#FFFFFF" d="M-597.5,430.5v10h-16v-10H-597.5 M-595.5,428.5h-20v14h20V428.5L-595.5,428.5z"/>
</svg>
